<svg xmlns="http://www.w3.org/2000/svg" viewBox="0 0 512 512">
  <defs>
    <linearGradient id="grad1" x1="0%" y1="0%" x2="100%" y2="100%">
      <stop offset="0%" style="stop-color:#10b981;stop-opacity:1" />
      <stop offset="100%" style="stop-color:#0d9488;stop-opacity:1" />
    </linearGradient>
  </defs>
  
  <!-- Background Circle -->
  <circle cx="256" cy="256" r="256" fill="url(#grad1)"/>
  
  <!-- Trophy Base -->
  <path d="M 256 140 L 200 180 L 200 280 L 256 320 L 312 280 L 312 180 Z" fill="#ffffff" opacity="0.9"/>
  
  <!-- Trophy Cup -->
  <ellipse cx="256" cy="180" rx="56" ry="20" fill="#ffffff"/>
  
  <!-- Trophy Handles -->
  <path d="M 200 200 Q 160 200 160 240 Q 160 260 180 260 L 200 260" fill="none" stroke="#ffffff" stroke-width="12" opacity="0.9"/>
  <path d="M 312 200 Q 352 200 352 240 Q 352 260 332 260 L 312 260" fill="none" stroke="#ffffff" stroke-width="12" opacity="0.9"/>
  
  <!-- Trophy Stand -->
  <rect x="236" y="320" width="40" height="40" rx="4" fill="#ffffff" opacity="0.9"/>
  <rect x="216" y="360" width="80" height="20" rx="4" fill="#ffffff" opacity="0.9"/>
  
  <!-- Star Accent -->
  <path d="M 256 100 L 266 130 L 296 130 L 272 148 L 282 178 L 256 160 L 230 178 L 240 148 L 216 130 L 246 130 Z" fill="#fbbf24" opacity="0.8"/>
  
  <!-- AI Circuit Lines -->
  <circle cx="220" cy="220" r="6" fill="#10b981" opacity="0.6"/>
  <circle cx="292" cy="220" r="6" fill="#10b981" opacity="0.6"/>
  <circle cx="256" cy="260" r="6" fill="#10b981" opacity="0.6"/>
  <line x1="220" y1="220" x2="256" y2="260" stroke="#10b981" stroke-width="2" opacity="0.6"/>
  <line x1="292" y1="220" x2="256" y2="260" stroke="#10b981" stroke-width="2" opacity="0.6"/>
</svg>
